<mxfile host="Electron" modified="2023-12-12T21:21:45.133Z" agent="Mozilla/5.0 (Windows NT 10.0; Win64; x64) AppleWebKit/537.36 (KHTML, like Gecko) draw.io/22.1.2 Chrome/114.0.5735.289 Electron/25.9.4 Safari/537.36" etag="qBmBUk6MXN8l11ZgJz7U" version="22.1.2" type="device">
  <diagram id="C5RBs43oDa-KdzZeNtuy" name="Page-1">
    <mxGraphModel dx="1050" dy="669" grid="1" gridSize="10" guides="1" tooltips="1" connect="1" arrows="1" fold="1" page="1" pageScale="1" pageWidth="827" pageHeight="1169" math="0" shadow="0">
      <root>
        <mxCell id="WIyWlLk6GJQsqaUBKTNV-0" />
        <mxCell id="WIyWlLk6GJQsqaUBKTNV-1" parent="WIyWlLk6GJQsqaUBKTNV-0" />
        <mxCell id="oq28UufqmQmVrt9SOS2U-5" value="" style="edgeStyle=orthogonalEdgeStyle;rounded=0;orthogonalLoop=1;jettySize=auto;html=1;" edge="1" parent="WIyWlLk6GJQsqaUBKTNV-1" source="oq28UufqmQmVrt9SOS2U-1" target="oq28UufqmQmVrt9SOS2U-4">
          <mxGeometry relative="1" as="geometry" />
        </mxCell>
        <mxCell id="oq28UufqmQmVrt9SOS2U-1" value="Choose Strategy" style="shape=parallelogram;perimeter=parallelogramPerimeter;whiteSpace=wrap;html=1;fixedSize=1;" vertex="1" parent="WIyWlLk6GJQsqaUBKTNV-1">
          <mxGeometry x="354" y="230" width="120" height="60" as="geometry" />
        </mxCell>
        <mxCell id="oq28UufqmQmVrt9SOS2U-7" value="" style="edgeStyle=orthogonalEdgeStyle;rounded=0;orthogonalLoop=1;jettySize=auto;html=1;" edge="1" parent="WIyWlLk6GJQsqaUBKTNV-1" source="oq28UufqmQmVrt9SOS2U-4" target="oq28UufqmQmVrt9SOS2U-6">
          <mxGeometry relative="1" as="geometry" />
        </mxCell>
        <mxCell id="oq28UufqmQmVrt9SOS2U-4" value="Initialize Array" style="shape=parallelogram;perimeter=parallelogramPerimeter;whiteSpace=wrap;html=1;fixedSize=1;" vertex="1" parent="WIyWlLk6GJQsqaUBKTNV-1">
          <mxGeometry x="354" y="340" width="120" height="60" as="geometry" />
        </mxCell>
        <mxCell id="oq28UufqmQmVrt9SOS2U-9" style="edgeStyle=orthogonalEdgeStyle;rounded=0;orthogonalLoop=1;jettySize=auto;html=1;entryX=0.5;entryY=0;entryDx=0;entryDy=0;" edge="1" parent="WIyWlLk6GJQsqaUBKTNV-1" source="oq28UufqmQmVrt9SOS2U-6" target="oq28UufqmQmVrt9SOS2U-8">
          <mxGeometry relative="1" as="geometry" />
        </mxCell>
        <mxCell id="oq28UufqmQmVrt9SOS2U-12" style="edgeStyle=orthogonalEdgeStyle;rounded=0;orthogonalLoop=1;jettySize=auto;html=1;exitX=0.5;exitY=1;exitDx=0;exitDy=0;" edge="1" parent="WIyWlLk6GJQsqaUBKTNV-1" source="oq28UufqmQmVrt9SOS2U-6" target="oq28UufqmQmVrt9SOS2U-10">
          <mxGeometry relative="1" as="geometry" />
        </mxCell>
        <mxCell id="oq28UufqmQmVrt9SOS2U-13" style="edgeStyle=orthogonalEdgeStyle;rounded=0;orthogonalLoop=1;jettySize=auto;html=1;exitX=1;exitY=0.5;exitDx=0;exitDy=0;entryX=0.5;entryY=0;entryDx=0;entryDy=0;" edge="1" parent="WIyWlLk6GJQsqaUBKTNV-1" source="oq28UufqmQmVrt9SOS2U-6" target="oq28UufqmQmVrt9SOS2U-11">
          <mxGeometry relative="1" as="geometry" />
        </mxCell>
        <mxCell id="oq28UufqmQmVrt9SOS2U-6" value="Choose Algorithm" style="shape=parallelogram;perimeter=parallelogramPerimeter;whiteSpace=wrap;html=1;fixedSize=1;" vertex="1" parent="WIyWlLk6GJQsqaUBKTNV-1">
          <mxGeometry x="354" y="450" width="120" height="60" as="geometry" />
        </mxCell>
        <mxCell id="oq28UufqmQmVrt9SOS2U-18" style="edgeStyle=orthogonalEdgeStyle;rounded=0;orthogonalLoop=1;jettySize=auto;html=1;entryX=0;entryY=0.5;entryDx=0;entryDy=0;" edge="1" parent="WIyWlLk6GJQsqaUBKTNV-1" source="oq28UufqmQmVrt9SOS2U-8" target="oq28UufqmQmVrt9SOS2U-15">
          <mxGeometry relative="1" as="geometry" />
        </mxCell>
        <mxCell id="oq28UufqmQmVrt9SOS2U-8" value="Bubble Sort" style="rounded=1;whiteSpace=wrap;html=1;" vertex="1" parent="WIyWlLk6GJQsqaUBKTNV-1">
          <mxGeometry x="180" y="555" width="120" height="60" as="geometry" />
        </mxCell>
        <mxCell id="oq28UufqmQmVrt9SOS2U-16" value="" style="edgeStyle=orthogonalEdgeStyle;rounded=0;orthogonalLoop=1;jettySize=auto;html=1;" edge="1" parent="WIyWlLk6GJQsqaUBKTNV-1" source="oq28UufqmQmVrt9SOS2U-10" target="oq28UufqmQmVrt9SOS2U-15">
          <mxGeometry relative="1" as="geometry" />
        </mxCell>
        <mxCell id="oq28UufqmQmVrt9SOS2U-10" value="Quick Sort" style="rounded=1;whiteSpace=wrap;html=1;" vertex="1" parent="WIyWlLk6GJQsqaUBKTNV-1">
          <mxGeometry x="354" y="550" width="120" height="60" as="geometry" />
        </mxCell>
        <mxCell id="oq28UufqmQmVrt9SOS2U-17" style="edgeStyle=orthogonalEdgeStyle;rounded=0;orthogonalLoop=1;jettySize=auto;html=1;entryX=1;entryY=0.5;entryDx=0;entryDy=0;" edge="1" parent="WIyWlLk6GJQsqaUBKTNV-1" source="oq28UufqmQmVrt9SOS2U-11" target="oq28UufqmQmVrt9SOS2U-15">
          <mxGeometry relative="1" as="geometry" />
        </mxCell>
        <mxCell id="oq28UufqmQmVrt9SOS2U-11" value="Merge Sort " style="rounded=1;whiteSpace=wrap;html=1;" vertex="1" parent="WIyWlLk6GJQsqaUBKTNV-1">
          <mxGeometry x="530" y="550" width="120" height="60" as="geometry" />
        </mxCell>
        <mxCell id="oq28UufqmQmVrt9SOS2U-26" value="" style="edgeStyle=orthogonalEdgeStyle;rounded=0;orthogonalLoop=1;jettySize=auto;html=1;" edge="1" parent="WIyWlLk6GJQsqaUBKTNV-1" source="oq28UufqmQmVrt9SOS2U-15" target="oq28UufqmQmVrt9SOS2U-24">
          <mxGeometry relative="1" as="geometry" />
        </mxCell>
        <mxCell id="oq28UufqmQmVrt9SOS2U-15" value="Print Sorted Array" style="rounded=1;whiteSpace=wrap;html=1;" vertex="1" parent="WIyWlLk6GJQsqaUBKTNV-1">
          <mxGeometry x="354" y="660" width="120" height="60" as="geometry" />
        </mxCell>
        <mxCell id="oq28UufqmQmVrt9SOS2U-22" value="" style="edgeStyle=orthogonalEdgeStyle;rounded=0;orthogonalLoop=1;jettySize=auto;html=1;" edge="1" parent="WIyWlLk6GJQsqaUBKTNV-1" source="oq28UufqmQmVrt9SOS2U-21" target="oq28UufqmQmVrt9SOS2U-1">
          <mxGeometry relative="1" as="geometry" />
        </mxCell>
        <mxCell id="oq28UufqmQmVrt9SOS2U-21" value="Start" style="ellipse;whiteSpace=wrap;html=1;" vertex="1" parent="WIyWlLk6GJQsqaUBKTNV-1">
          <mxGeometry x="362" y="100.67" width="104" height="69.33" as="geometry" />
        </mxCell>
        <mxCell id="oq28UufqmQmVrt9SOS2U-24" value="End" style="ellipse;whiteSpace=wrap;html=1;" vertex="1" parent="WIyWlLk6GJQsqaUBKTNV-1">
          <mxGeometry x="362" y="770" width="104" height="69.33" as="geometry" />
        </mxCell>
      </root>
    </mxGraphModel>
  </diagram>
</mxfile>
